<mxfile host="www.draw.io" modified="2019-11-25T16:19:22.284Z" agent="Mozilla/5.0 (Windows NT 10.0; Win64; x64) AppleWebKit/537.36 (KHTML, like Gecko) Chrome/78.0.3904.108 Safari/537.36" etag="JfAT95OCVL3FcRSJtSoV" version="12.3.0" type="github" pages="1">
  <diagram id="HvXo7RwUKjI39qojTFpH" name="Page-1">
    <mxGraphModel dx="1089" dy="650" grid="1" gridSize="10" guides="1" tooltips="1" connect="1" arrows="1" fold="1" page="1" pageScale="1" pageWidth="850" pageHeight="1100" math="0" shadow="0">
      <root>
        <mxCell id="0"/>
        <mxCell id="1" parent="0"/>
        <mxCell id="D3Uim407w7zxOrBkIjUw-3" value="" style="edgeStyle=orthogonalEdgeStyle;rounded=0;orthogonalLoop=1;jettySize=auto;html=1;entryX=0;entryY=0.5;entryDx=0;entryDy=0;" parent="1" source="D3Uim407w7zxOrBkIjUw-1" target="D3Uim407w7zxOrBkIjUw-4" edge="1">
          <mxGeometry relative="1" as="geometry">
            <mxPoint x="170" y="310" as="targetPoint"/>
          </mxGeometry>
        </mxCell>
        <mxCell id="D3Uim407w7zxOrBkIjUw-1" value="Non-EPA Public DataSource" style="shape=cylinder;whiteSpace=wrap;html=1;boundedLbl=1;backgroundOutline=1;" parent="1" vertex="1">
          <mxGeometry x="20" y="270" width="70" height="80" as="geometry"/>
        </mxCell>
        <mxCell id="D3Uim407w7zxOrBkIjUw-4" value="Data Pull&lt;br&gt;and Reshape" style="whiteSpace=wrap;html=1;aspect=fixed;" parent="1" vertex="1">
          <mxGeometry x="120" y="270" width="80" height="80" as="geometry"/>
        </mxCell>
        <mxCell id="D3Uim407w7zxOrBkIjUw-5" value="" style="endArrow=classic;html=1;exitX=1;exitY=0.25;exitDx=0;exitDy=0;entryX=0;entryY=0.25;entryDx=0;entryDy=0;" parent="1" source="D3Uim407w7zxOrBkIjUw-4" target="D3Uim407w7zxOrBkIjUw-12" edge="1">
          <mxGeometry width="50" height="50" relative="1" as="geometry">
            <mxPoint x="190" y="321" as="sourcePoint"/>
            <mxPoint x="240" y="291" as="targetPoint"/>
          </mxGeometry>
        </mxCell>
        <mxCell id="D3Uim407w7zxOrBkIjUw-6" value="" style="endArrow=classic;html=1;exitX=1;exitY=0.75;exitDx=0;exitDy=0;entryX=0;entryY=0.25;entryDx=0;entryDy=0;" parent="1" source="D3Uim407w7zxOrBkIjUw-4" target="D3Uim407w7zxOrBkIjUw-9" edge="1">
          <mxGeometry width="50" height="50" relative="1" as="geometry">
            <mxPoint x="200" y="331" as="sourcePoint"/>
            <mxPoint x="240" y="331" as="targetPoint"/>
          </mxGeometry>
        </mxCell>
        <mxCell id="D3Uim407w7zxOrBkIjUw-9" value="metadata.json" style="shape=document;whiteSpace=wrap;html=1;boundedLbl=1;fontSize=9;" parent="1" vertex="1">
          <mxGeometry x="215" y="318" width="60" height="40" as="geometry"/>
        </mxCell>
        <mxCell id="D3Uim407w7zxOrBkIjUw-11" value="sourcetoNAICS&lt;br&gt;mapping.csv" style="shape=document;whiteSpace=wrap;html=1;boundedLbl=1;fontSize=9;" parent="1" vertex="1">
          <mxGeometry x="310" y="224" width="67" height="36" as="geometry"/>
        </mxCell>
        <mxCell id="D3Uim407w7zxOrBkIjUw-64" value="" style="edgeStyle=orthogonalEdgeStyle;rounded=0;orthogonalLoop=1;jettySize=auto;html=1;fontSize=11;" parent="1" source="D3Uim407w7zxOrBkIjUw-12" target="D3Uim407w7zxOrBkIjUw-63" edge="1">
          <mxGeometry relative="1" as="geometry"/>
        </mxCell>
        <mxCell id="D3Uim407w7zxOrBkIjUw-12" value="Natural&lt;br&gt;Sector&lt;br&gt;Attribution" style="whiteSpace=wrap;html=1;aspect=fixed;" parent="1" vertex="1">
          <mxGeometry x="310" y="270" width="80" height="80" as="geometry"/>
        </mxCell>
        <mxCell id="7BGfKjQ7_wsdraPpQlyY-3" value="" style="edgeStyle=orthogonalEdgeStyle;rounded=0;orthogonalLoop=1;jettySize=auto;html=1;entryX=0.5;entryY=0;entryDx=0;entryDy=0;exitX=1;exitY=0.5;exitDx=0;exitDy=0;" edge="1" parent="1" source="D3Uim407w7zxOrBkIjUw-14" target="D3Uim407w7zxOrBkIjUw-4">
          <mxGeometry relative="1" as="geometry"/>
        </mxCell>
        <mxCell id="D3Uim407w7zxOrBkIjUw-14" value="datasource&lt;br&gt;config.yml" style="shape=document;whiteSpace=wrap;html=1;boundedLbl=1;fontSize=9;" parent="1" vertex="1">
          <mxGeometry x="70" y="220" width="50" height="40" as="geometry"/>
        </mxCell>
        <mxCell id="7BGfKjQ7_wsdraPpQlyY-7" value="" style="edgeStyle=orthogonalEdgeStyle;rounded=0;orthogonalLoop=1;jettySize=auto;html=1;" edge="1" parent="1" source="D3Uim407w7zxOrBkIjUw-16" target="D3Uim407w7zxOrBkIjUw-41">
          <mxGeometry relative="1" as="geometry"/>
        </mxCell>
        <mxCell id="D3Uim407w7zxOrBkIjUw-16" value="FlowbySector&lt;br&gt;byLocation201x.parquet" style="shape=document;whiteSpace=wrap;html=1;boundedLbl=1;fontSize=9;" parent="1" vertex="1">
          <mxGeometry x="670" y="335" width="111" height="30" as="geometry"/>
        </mxCell>
        <mxCell id="D3Uim407w7zxOrBkIjUw-83" value="reliability&lt;br&gt;scoring" style="edgeStyle=orthogonalEdgeStyle;rounded=0;orthogonalLoop=1;jettySize=auto;html=1;startArrow=classic;startFill=1;endArrow=none;endFill=0;fontSize=11;entryX=0.25;entryY=0;entryDx=0;entryDy=0;exitX=0.25;exitY=1;exitDx=0;exitDy=0;" parent="1" source="D3Uim407w7zxOrBkIjUw-19" target="D3Uim407w7zxOrBkIjUw-12" edge="1">
          <mxGeometry x="0.1429" relative="1" as="geometry">
            <Array as="points">
              <mxPoint x="330" y="220"/>
              <mxPoint x="260" y="220"/>
              <mxPoint x="260" y="270"/>
            </Array>
            <mxPoint as="offset"/>
          </mxGeometry>
        </mxCell>
        <mxCell id="D3Uim407w7zxOrBkIjUw-19" value="Core" style="whiteSpace=wrap;html=1;aspect=fixed;" parent="1" vertex="1">
          <mxGeometry x="310" y="120" width="80" height="80" as="geometry"/>
        </mxCell>
        <mxCell id="D3Uim407w7zxOrBkIjUw-30" value="Codes&lt;br&gt;Descriptions" style="edgeStyle=orthogonalEdgeStyle;rounded=0;orthogonalLoop=1;jettySize=auto;html=1;fontSize=11;" parent="1" source="D3Uim407w7zxOrBkIjUw-20" target="D3Uim407w7zxOrBkIjUw-19" edge="1">
          <mxGeometry relative="1" as="geometry"/>
        </mxCell>
        <mxCell id="D3Uim407w7zxOrBkIjUw-20" value="NAICS" style="shape=cylinder;whiteSpace=wrap;html=1;boundedLbl=1;backgroundOutline=1;" parent="1" vertex="1">
          <mxGeometry x="147.5" y="90" width="45" height="60" as="geometry"/>
        </mxCell>
        <mxCell id="D3Uim407w7zxOrBkIjUw-23" value="contexts, mappings, flows" style="edgeStyle=orthogonalEdgeStyle;rounded=0;orthogonalLoop=1;jettySize=auto;html=1;fontSize=11;" parent="1" source="D3Uim407w7zxOrBkIjUw-22" target="D3Uim407w7zxOrBkIjUw-19" edge="1">
          <mxGeometry relative="1" as="geometry"/>
        </mxCell>
        <mxCell id="D3Uim407w7zxOrBkIjUw-22" value="fedelemflowlist" style="rounded=0;whiteSpace=wrap;html=1;fontSize=11;" parent="1" vertex="1">
          <mxGeometry x="310" y="20" width="80" height="30" as="geometry"/>
        </mxCell>
        <mxCell id="D3Uim407w7zxOrBkIjUw-27" value="technological data quality adjustments" style="edgeStyle=orthogonalEdgeStyle;rounded=0;orthogonalLoop=1;jettySize=auto;html=1;fontSize=11;exitX=0.5;exitY=0;exitDx=0;exitDy=0;startArrow=classic;startFill=1;endArrow=none;endFill=0;" parent="1" source="D3Uim407w7zxOrBkIjUw-41" target="D3Uim407w7zxOrBkIjUw-19" edge="1">
          <mxGeometry relative="1" as="geometry">
            <Array as="points">
              <mxPoint x="860" y="300"/>
              <mxPoint x="720" y="300"/>
              <mxPoint x="720" y="205"/>
              <mxPoint x="350" y="205"/>
            </Array>
            <mxPoint as="offset"/>
          </mxGeometry>
        </mxCell>
        <mxCell id="7BGfKjQ7_wsdraPpQlyY-4" value="" style="edgeStyle=orthogonalEdgeStyle;rounded=0;orthogonalLoop=1;jettySize=auto;html=1;" edge="1" parent="1" source="D3Uim407w7zxOrBkIjUw-24" target="D3Uim407w7zxOrBkIjUw-19">
          <mxGeometry relative="1" as="geometry"/>
        </mxCell>
        <mxCell id="D3Uim407w7zxOrBkIjUw-24" value="flow types" style="shape=document;whiteSpace=wrap;html=1;boundedLbl=1;fontSize=9;" parent="1" vertex="1">
          <mxGeometry x="442.5" y="110" width="75" height="40" as="geometry"/>
        </mxCell>
        <mxCell id="D3Uim407w7zxOrBkIjUw-36" value="FIPS&lt;br&gt;&amp;nbsp;urban areas,&lt;br&gt;establishments" style="edgeStyle=orthogonalEdgeStyle;rounded=0;orthogonalLoop=1;jettySize=auto;html=1;fontSize=11;" parent="1" source="D3Uim407w7zxOrBkIjUw-34" edge="1">
          <mxGeometry relative="1" as="geometry">
            <mxPoint x="310" y="172" as="targetPoint"/>
            <Array as="points">
              <mxPoint x="250" y="210"/>
              <mxPoint x="250" y="172"/>
            </Array>
          </mxGeometry>
        </mxCell>
        <mxCell id="D3Uim407w7zxOrBkIjUw-34" value="Census" style="shape=cylinder;whiteSpace=wrap;html=1;boundedLbl=1;backgroundOutline=1;" parent="1" vertex="1">
          <mxGeometry x="155" y="170" width="45" height="60" as="geometry"/>
        </mxCell>
        <mxCell id="D3Uim407w7zxOrBkIjUw-77" value="" style="edgeStyle=orthogonalEdgeStyle;rounded=0;orthogonalLoop=1;jettySize=auto;html=1;startArrow=classic;startFill=1;endArrow=none;endFill=0;fontSize=11;exitX=0.5;exitY=1;exitDx=0;exitDy=0;entryX=0.5;entryY=0;entryDx=0;entryDy=0;" parent="1" source="D3Uim407w7zxOrBkIjUw-47" target="D3Uim407w7zxOrBkIjUw-37" edge="1">
          <mxGeometry relative="1" as="geometry"/>
        </mxCell>
        <mxCell id="D3Uim407w7zxOrBkIjUw-37" value="fedelemflowlist&lt;br&gt;mapping.csv" style="shape=document;whiteSpace=wrap;html=1;boundedLbl=1;fontSize=9;" parent="1" vertex="1">
          <mxGeometry x="562.5" y="430" width="70" height="35" as="geometry"/>
        </mxCell>
        <mxCell id="7BGfKjQ7_wsdraPpQlyY-10" value="" style="edgeStyle=orthogonalEdgeStyle;rounded=0;orthogonalLoop=1;jettySize=auto;html=1;" edge="1" parent="1" source="D3Uim407w7zxOrBkIjUw-41" target="7BGfKjQ7_wsdraPpQlyY-9">
          <mxGeometry relative="1" as="geometry"/>
        </mxCell>
        <mxCell id="D3Uim407w7zxOrBkIjUw-41" value="Allocation to NAICS levels" style="whiteSpace=wrap;html=1;aspect=fixed;" parent="1" vertex="1">
          <mxGeometry x="820" y="318" width="80" height="80" as="geometry"/>
        </mxCell>
        <mxCell id="D3Uim407w7zxOrBkIjUw-42" value="FlowbyNAICS-6-byLocation201x.parquet" style="shape=document;whiteSpace=wrap;html=1;boundedLbl=1;fontSize=9;" parent="1" vertex="1">
          <mxGeometry x="939" y="291" width="140" height="38" as="geometry"/>
        </mxCell>
        <mxCell id="D3Uim407w7zxOrBkIjUw-45" value="" style="edgeStyle=orthogonalEdgeStyle;rounded=0;orthogonalLoop=1;jettySize=auto;html=1;fontSize=11;entryX=0;entryY=0.5;entryDx=0;entryDy=0;" parent="1" source="D3Uim407w7zxOrBkIjUw-43" target="D3Uim407w7zxOrBkIjUw-46" edge="1">
          <mxGeometry relative="1" as="geometry"/>
        </mxCell>
        <mxCell id="D3Uim407w7zxOrBkIjUw-43" value="Non-EPA Public DataSource" style="shape=cylinder;whiteSpace=wrap;html=1;boundedLbl=1;backgroundOutline=1;" parent="1" vertex="1">
          <mxGeometry x="10" y="370" width="70" height="80" as="geometry"/>
        </mxCell>
        <mxCell id="D3Uim407w7zxOrBkIjUw-50" value="" style="edgeStyle=orthogonalEdgeStyle;rounded=0;orthogonalLoop=1;jettySize=auto;html=1;fontSize=11;entryX=0;entryY=0.5;entryDx=0;entryDy=0;" parent="1" source="D3Uim407w7zxOrBkIjUw-46" target="D3Uim407w7zxOrBkIjUw-48" edge="1">
          <mxGeometry relative="1" as="geometry">
            <mxPoint x="280" y="410" as="targetPoint"/>
          </mxGeometry>
        </mxCell>
        <mxCell id="D3Uim407w7zxOrBkIjUw-46" value="Data Pull&lt;br&gt;and Reshape" style="whiteSpace=wrap;html=1;aspect=fixed;" parent="1" vertex="1">
          <mxGeometry x="120" y="370" width="80" height="80" as="geometry"/>
        </mxCell>
        <mxCell id="D3Uim407w7zxOrBkIjUw-55" value="" style="edgeStyle=orthogonalEdgeStyle;rounded=0;orthogonalLoop=1;jettySize=auto;html=1;fontSize=11;" parent="1" source="D3Uim407w7zxOrBkIjUw-47" target="D3Uim407w7zxOrBkIjUw-16" edge="1">
          <mxGeometry relative="1" as="geometry"/>
        </mxCell>
        <mxCell id="D3Uim407w7zxOrBkIjUw-47" value="Source&lt;br&gt;Aggregation" style="whiteSpace=wrap;html=1;aspect=fixed;" parent="1" vertex="1">
          <mxGeometry x="557.5" y="310" width="80" height="80" as="geometry"/>
        </mxCell>
        <mxCell id="D3Uim407w7zxOrBkIjUw-48" value="Natural&lt;br&gt;Sector&lt;br&gt;Attribution" style="whiteSpace=wrap;html=1;aspect=fixed;" parent="1" vertex="1">
          <mxGeometry x="310" y="370" width="80" height="80" as="geometry"/>
        </mxCell>
        <mxCell id="D3Uim407w7zxOrBkIjUw-58" value="" style="endArrow=classic;html=1;exitX=1;exitY=0.75;exitDx=0;exitDy=0;entryX=0;entryY=0.25;entryDx=0;entryDy=0;" parent="1" target="D3Uim407w7zxOrBkIjUw-59" edge="1">
          <mxGeometry width="50" height="50" relative="1" as="geometry">
            <mxPoint x="200" y="442" as="sourcePoint"/>
            <mxPoint x="240" y="443" as="targetPoint"/>
          </mxGeometry>
        </mxCell>
        <mxCell id="D3Uim407w7zxOrBkIjUw-59" value="metadata.json" style="shape=document;whiteSpace=wrap;html=1;boundedLbl=1;fontSize=9;" parent="1" vertex="1">
          <mxGeometry x="215" y="430" width="60" height="40" as="geometry"/>
        </mxCell>
        <mxCell id="D3Uim407w7zxOrBkIjUw-62" value="" style="edgeStyle=orthogonalEdgeStyle;rounded=0;orthogonalLoop=1;jettySize=auto;html=1;fontSize=11;entryX=1;entryY=0.75;entryDx=0;entryDy=0;" parent="1" source="D3Uim407w7zxOrBkIjUw-60" target="D3Uim407w7zxOrBkIjUw-19" edge="1">
          <mxGeometry relative="1" as="geometry">
            <mxPoint x="512.5" y="180" as="targetPoint"/>
          </mxGeometry>
        </mxCell>
        <mxCell id="D3Uim407w7zxOrBkIjUw-60" value="data quality scoring rubric.csv" style="shape=document;whiteSpace=wrap;html=1;boundedLbl=1;fontSize=9;" parent="1" vertex="1">
          <mxGeometry x="450" y="160" width="75" height="40" as="geometry"/>
        </mxCell>
        <mxCell id="D3Uim407w7zxOrBkIjUw-65" value="" style="edgeStyle=orthogonalEdgeStyle;rounded=0;orthogonalLoop=1;jettySize=auto;html=1;fontSize=11;" parent="1" source="D3Uim407w7zxOrBkIjUw-63" target="D3Uim407w7zxOrBkIjUw-47" edge="1">
          <mxGeometry relative="1" as="geometry"/>
        </mxCell>
        <mxCell id="D3Uim407w7zxOrBkIjUw-63" value="FlowbySector&lt;br&gt;byLocation201x.parquet" style="shape=document;whiteSpace=wrap;html=1;boundedLbl=1;fontSize=9;" parent="1" vertex="1">
          <mxGeometry x="412.5" y="296" width="105" height="28" as="geometry"/>
        </mxCell>
        <mxCell id="D3Uim407w7zxOrBkIjUw-68" value="" style="edgeStyle=orthogonalEdgeStyle;rounded=0;orthogonalLoop=1;jettySize=auto;html=1;fontSize=11;startArrow=classic;startFill=1;endArrow=none;endFill=0;" parent="1" source="D3Uim407w7zxOrBkIjUw-67" target="D3Uim407w7zxOrBkIjUw-48" edge="1">
          <mxGeometry relative="1" as="geometry"/>
        </mxCell>
        <mxCell id="D3Uim407w7zxOrBkIjUw-69" value="" style="edgeStyle=orthogonalEdgeStyle;rounded=0;orthogonalLoop=1;jettySize=auto;html=1;fontSize=11;" parent="1" source="D3Uim407w7zxOrBkIjUw-67" target="D3Uim407w7zxOrBkIjUw-47" edge="1">
          <mxGeometry relative="1" as="geometry"/>
        </mxCell>
        <mxCell id="D3Uim407w7zxOrBkIjUw-67" value="FlowbySector&lt;br&gt;byLocation201x.parquet" style="shape=document;whiteSpace=wrap;html=1;boundedLbl=1;fontSize=9;" parent="1" vertex="1">
          <mxGeometry x="412.5" y="376" width="105" height="28" as="geometry"/>
        </mxCell>
        <mxCell id="D3Uim407w7zxOrBkIjUw-70" value="sourcetoNAICS&lt;br&gt;mapping.csv" style="shape=document;whiteSpace=wrap;html=1;boundedLbl=1;fontSize=9;" parent="1" vertex="1">
          <mxGeometry x="313.5" y="490" width="73" height="40" as="geometry"/>
        </mxCell>
        <mxCell id="D3Uim407w7zxOrBkIjUw-71" value="" style="endArrow=classic;html=1;fontSize=11;entryX=0.5;entryY=1;entryDx=0;entryDy=0;exitX=0.5;exitY=0;exitDx=0;exitDy=0;" parent="1" source="D3Uim407w7zxOrBkIjUw-70" target="D3Uim407w7zxOrBkIjUw-48" edge="1">
          <mxGeometry width="50" height="50" relative="1" as="geometry">
            <mxPoint x="10" y="610" as="sourcePoint"/>
            <mxPoint x="60" y="560" as="targetPoint"/>
          </mxGeometry>
        </mxCell>
        <mxCell id="7BGfKjQ7_wsdraPpQlyY-2" value="" style="edgeStyle=orthogonalEdgeStyle;rounded=0;orthogonalLoop=1;jettySize=auto;html=1;entryX=0.5;entryY=1;entryDx=0;entryDy=0;" edge="1" parent="1" source="D3Uim407w7zxOrBkIjUw-72" target="D3Uim407w7zxOrBkIjUw-46">
          <mxGeometry relative="1" as="geometry">
            <mxPoint x="115" y="430" as="targetPoint"/>
          </mxGeometry>
        </mxCell>
        <mxCell id="D3Uim407w7zxOrBkIjUw-72" value="datasource&lt;br&gt;config.yml" style="shape=document;whiteSpace=wrap;html=1;boundedLbl=1;fontSize=9;" parent="1" vertex="1">
          <mxGeometry x="67" y="456" width="50" height="40" as="geometry"/>
        </mxCell>
        <mxCell id="D3Uim407w7zxOrBkIjUw-78" value="flowmapping" style="edgeStyle=orthogonalEdgeStyle;rounded=0;orthogonalLoop=1;jettySize=auto;html=1;fontSize=11;exitX=0.75;exitY=0;exitDx=0;exitDy=0;startArrow=classic;startFill=1;endArrow=none;endFill=0;entryX=0.598;entryY=1.008;entryDx=0;entryDy=0;entryPerimeter=0;" parent="1" source="D3Uim407w7zxOrBkIjUw-47" target="D3Uim407w7zxOrBkIjUw-19" edge="1">
          <mxGeometry x="0.005" relative="1" as="geometry">
            <mxPoint x="730" y="320" as="sourcePoint"/>
            <mxPoint x="360" y="210" as="targetPoint"/>
            <Array as="points">
              <mxPoint x="618" y="280"/>
              <mxPoint x="640" y="280"/>
              <mxPoint x="640" y="216"/>
              <mxPoint x="358" y="216"/>
            </Array>
            <mxPoint as="offset"/>
          </mxGeometry>
        </mxCell>
        <mxCell id="D3Uim407w7zxOrBkIjUw-80" value="" style="endArrow=classic;html=1;fontSize=11;exitX=0.551;exitY=0.866;exitDx=0;exitDy=0;exitPerimeter=0;entryX=0.5;entryY=0;entryDx=0;entryDy=0;" parent="1" source="D3Uim407w7zxOrBkIjUw-11" target="D3Uim407w7zxOrBkIjUw-12" edge="1">
          <mxGeometry width="50" height="50" relative="1" as="geometry">
            <mxPoint x="340" y="290" as="sourcePoint"/>
            <mxPoint x="390" y="240" as="targetPoint"/>
          </mxGeometry>
        </mxCell>
        <mxCell id="7BGfKjQ7_wsdraPpQlyY-8" value="FlowbyNAICS-3-byLocation201x.parquet" style="shape=document;whiteSpace=wrap;html=1;boundedLbl=1;fontSize=9;" vertex="1" parent="1">
          <mxGeometry x="939" y="366" width="140" height="38" as="geometry"/>
        </mxCell>
        <mxCell id="7BGfKjQ7_wsdraPpQlyY-9" value="FlowbyNAICS-4-byLocation201x.parquet" style="shape=document;whiteSpace=wrap;html=1;boundedLbl=1;fontSize=9;" vertex="1" parent="1">
          <mxGeometry x="939" y="328" width="140" height="38" as="geometry"/>
        </mxCell>
        <mxCell id="7BGfKjQ7_wsdraPpQlyY-11" value="" style="edgeStyle=orthogonalEdgeStyle;rounded=0;orthogonalLoop=1;jettySize=auto;html=1;exitX=0.997;exitY=0.647;exitDx=0;exitDy=0;exitPerimeter=0;entryX=0;entryY=0.5;entryDx=0;entryDy=0;" edge="1" parent="1" source="D3Uim407w7zxOrBkIjUw-41" target="7BGfKjQ7_wsdraPpQlyY-8">
          <mxGeometry relative="1" as="geometry">
            <mxPoint x="910" y="368" as="sourcePoint"/>
            <mxPoint x="949" y="357" as="targetPoint"/>
          </mxGeometry>
        </mxCell>
        <mxCell id="7BGfKjQ7_wsdraPpQlyY-12" value="" style="edgeStyle=orthogonalEdgeStyle;rounded=0;orthogonalLoop=1;jettySize=auto;html=1;exitX=1;exitY=0.25;exitDx=0;exitDy=0;entryX=0;entryY=0.5;entryDx=0;entryDy=0;" edge="1" parent="1" source="D3Uim407w7zxOrBkIjUw-41" target="D3Uim407w7zxOrBkIjUw-42">
          <mxGeometry relative="1" as="geometry">
            <mxPoint x="910" y="380" as="sourcePoint"/>
            <mxPoint x="949" y="395" as="targetPoint"/>
          </mxGeometry>
        </mxCell>
        <mxCell id="7BGfKjQ7_wsdraPpQlyY-13" value="" style="edgeStyle=orthogonalEdgeStyle;rounded=0;orthogonalLoop=1;jettySize=auto;html=1;fontSize=11;entryX=0;entryY=0.5;entryDx=0;entryDy=0;" edge="1" parent="1" source="7BGfKjQ7_wsdraPpQlyY-14" target="7BGfKjQ7_wsdraPpQlyY-16">
          <mxGeometry relative="1" as="geometry"/>
        </mxCell>
        <mxCell id="7BGfKjQ7_wsdraPpQlyY-14" value="Non-EPA Public DataSource" style="shape=cylinder;whiteSpace=wrap;html=1;boundedLbl=1;backgroundOutline=1;" vertex="1" parent="1">
          <mxGeometry x="10" y="540" width="70" height="80" as="geometry"/>
        </mxCell>
        <mxCell id="7BGfKjQ7_wsdraPpQlyY-15" value="" style="edgeStyle=orthogonalEdgeStyle;rounded=0;orthogonalLoop=1;jettySize=auto;html=1;fontSize=11;entryX=0;entryY=0.5;entryDx=0;entryDy=0;" edge="1" parent="1" source="7BGfKjQ7_wsdraPpQlyY-16" target="7BGfKjQ7_wsdraPpQlyY-17">
          <mxGeometry relative="1" as="geometry">
            <mxPoint x="280" y="580" as="targetPoint"/>
          </mxGeometry>
        </mxCell>
        <mxCell id="7BGfKjQ7_wsdraPpQlyY-16" value="Data Pull&lt;br&gt;and Reshape" style="whiteSpace=wrap;html=1;aspect=fixed;" vertex="1" parent="1">
          <mxGeometry x="120" y="540" width="80" height="80" as="geometry"/>
        </mxCell>
        <mxCell id="7BGfKjQ7_wsdraPpQlyY-17" value="Natural&lt;br&gt;Sector&lt;br&gt;Attribution" style="whiteSpace=wrap;html=1;aspect=fixed;" vertex="1" parent="1">
          <mxGeometry x="310" y="540" width="80" height="80" as="geometry"/>
        </mxCell>
        <mxCell id="7BGfKjQ7_wsdraPpQlyY-18" value="" style="endArrow=classic;html=1;exitX=1;exitY=0.75;exitDx=0;exitDy=0;entryX=0;entryY=0.25;entryDx=0;entryDy=0;" edge="1" parent="1" target="7BGfKjQ7_wsdraPpQlyY-19">
          <mxGeometry width="50" height="50" relative="1" as="geometry">
            <mxPoint x="200" y="612" as="sourcePoint"/>
            <mxPoint x="240" y="613" as="targetPoint"/>
          </mxGeometry>
        </mxCell>
        <mxCell id="7BGfKjQ7_wsdraPpQlyY-19" value="metadata.json" style="shape=document;whiteSpace=wrap;html=1;boundedLbl=1;fontSize=9;" vertex="1" parent="1">
          <mxGeometry x="215" y="600" width="60" height="40" as="geometry"/>
        </mxCell>
        <mxCell id="7BGfKjQ7_wsdraPpQlyY-20" value="" style="edgeStyle=orthogonalEdgeStyle;rounded=0;orthogonalLoop=1;jettySize=auto;html=1;fontSize=11;startArrow=classic;startFill=1;endArrow=none;endFill=0;" edge="1" parent="1" source="7BGfKjQ7_wsdraPpQlyY-21" target="7BGfKjQ7_wsdraPpQlyY-17">
          <mxGeometry relative="1" as="geometry"/>
        </mxCell>
        <mxCell id="7BGfKjQ7_wsdraPpQlyY-27" value="Allocation source" style="edgeStyle=orthogonalEdgeStyle;rounded=0;orthogonalLoop=1;jettySize=auto;html=1;entryX=0.5;entryY=1;entryDx=0;entryDy=0;" edge="1" parent="1" source="7BGfKjQ7_wsdraPpQlyY-21" target="D3Uim407w7zxOrBkIjUw-41">
          <mxGeometry relative="1" as="geometry">
            <mxPoint x="597.5" y="560" as="targetPoint"/>
          </mxGeometry>
        </mxCell>
        <mxCell id="7BGfKjQ7_wsdraPpQlyY-21" value="FlowbySector&lt;br&gt;byLocation201x.parquet" style="shape=document;whiteSpace=wrap;html=1;boundedLbl=1;fontSize=9;" vertex="1" parent="1">
          <mxGeometry x="487.5" y="566" width="105" height="28" as="geometry"/>
        </mxCell>
        <mxCell id="7BGfKjQ7_wsdraPpQlyY-22" value="sourcetoNAICS&lt;br&gt;mapping.csv" style="shape=document;whiteSpace=wrap;html=1;boundedLbl=1;fontSize=9;" vertex="1" parent="1">
          <mxGeometry x="313.5" y="660" width="73" height="40" as="geometry"/>
        </mxCell>
        <mxCell id="7BGfKjQ7_wsdraPpQlyY-23" value="" style="endArrow=classic;html=1;fontSize=11;entryX=0.5;entryY=1;entryDx=0;entryDy=0;exitX=0.5;exitY=0;exitDx=0;exitDy=0;" edge="1" parent="1" source="7BGfKjQ7_wsdraPpQlyY-22" target="7BGfKjQ7_wsdraPpQlyY-17">
          <mxGeometry width="50" height="50" relative="1" as="geometry">
            <mxPoint x="10" y="780" as="sourcePoint"/>
            <mxPoint x="60" y="730" as="targetPoint"/>
          </mxGeometry>
        </mxCell>
        <mxCell id="7BGfKjQ7_wsdraPpQlyY-24" value="" style="edgeStyle=orthogonalEdgeStyle;rounded=0;orthogonalLoop=1;jettySize=auto;html=1;entryX=0.5;entryY=1;entryDx=0;entryDy=0;" edge="1" parent="1" source="7BGfKjQ7_wsdraPpQlyY-25" target="7BGfKjQ7_wsdraPpQlyY-16">
          <mxGeometry relative="1" as="geometry">
            <mxPoint x="115" y="600" as="targetPoint"/>
          </mxGeometry>
        </mxCell>
        <mxCell id="7BGfKjQ7_wsdraPpQlyY-25" value="datasource&lt;br&gt;config.yml" style="shape=document;whiteSpace=wrap;html=1;boundedLbl=1;fontSize=9;" vertex="1" parent="1">
          <mxGeometry x="67" y="626" width="50" height="40" as="geometry"/>
        </mxCell>
        <mxCell id="7BGfKjQ7_wsdraPpQlyY-28" value="Source&lt;br&gt;Combo" style="whiteSpace=wrap;html=1;aspect=fixed;" vertex="1" parent="1">
          <mxGeometry x="710" y="416" width="64" height="64" as="geometry"/>
        </mxCell>
      </root>
    </mxGraphModel>
  </diagram>
</mxfile>
